<svg xmlns="http://www.w3.org/2000/svg" xmlns:xlink="http://www.w3.org/1999/xlink" width="356" zoomAndPan="magnify" viewBox="0 0 267 115.499997" height="154" preserveAspectRatio="xMidYMid meet" version="1.0"><defs><g/><clipPath id="eded68ccbc"><path d="M 103.519531 25.371094 L 163.25 25.371094 L 163.25 78.691406 L 103.519531 78.691406 Z M 103.519531 25.371094 " clip-rule="nonzero"/></clipPath><clipPath id="294771f8e3"><path d="M 0.574219 85 L 97 85 L 97 89 L 0.574219 89 Z M 0.574219 85 " clip-rule="nonzero"/></clipPath><clipPath id="df2a635b8a"><path d="M 0.574219 32 L 97 32 L 97 36 L 0.574219 36 Z M 0.574219 32 " clip-rule="nonzero"/></clipPath><clipPath id="ecdefe6ea2"><path d="M 170 85 L 266.421875 85 L 266.421875 89 L 170 89 Z M 170 85 " clip-rule="nonzero"/></clipPath><clipPath id="7454103a7c"><path d="M 170 32 L 266.421875 32 L 266.421875 36 L 170 36 Z M 170 32 " clip-rule="nonzero"/></clipPath></defs><path fill="#3e75a3" d="M 157.695312 43.101562 L 133.828125 91.855469 L 109.121094 43.582031 C 109.136719 43.574219 109.175781 43.578125 109.175781 43.558594 C 109.175781 25.371094 157.691406 24.855469 157.691406 43.101562 C 157.691406 43.101562 157.695312 43.101562 157.695312 43.101562 " fill-opacity="1" fill-rule="nonzero"/><path fill="#ffffff" d="M 161.917969 35.511719 C 161.886719 35.351562 161.800781 35.214844 161.664062 35.125 C 153.402344 29.605469 143.78125 26.691406 133.847656 26.691406 C 123.503906 26.691406 113.558594 29.828125 105.089844 35.765625 C 104.960938 35.859375 104.875 35.996094 104.847656 36.15625 C 104.824219 36.316406 104.863281 36.476562 104.960938 36.609375 L 107.464844 40 L 107.972656 40.683594 L 108.257812 41.070312 L 109.035156 42.121094 C 109.054688 42.109375 109.074219 42.097656 109.097656 42.085938 L 110.28125 42.949219 L 120.210938 62.355469 C 119.574219 63.222656 119.199219 64.292969 119.199219 65.449219 C 119.199219 68.34375 121.550781 70.695312 124.445312 70.695312 C 124.457031 70.695312 124.46875 70.695312 124.480469 70.695312 L 133.800781 88.90625 L 146.222656 63.527344 C 146.410156 63.550781 146.597656 63.566406 146.789062 63.566406 C 149.242188 63.566406 151.238281 61.570312 151.238281 59.117188 C 151.238281 57.886719 150.734375 56.773438 149.925781 55.96875 L 156.523438 42.488281 L 157.804688 41.660156 L 158.328125 40.917969 L 158.929688 40.0625 L 159.089844 39.835938 L 161.820312 35.96875 C 161.914062 35.832031 161.949219 35.671875 161.917969 35.511719 " fill-opacity="1" fill-rule="nonzero"/><path fill="#3e75a3" d="M 137.824219 64.863281 C 137.917969 64.511719 137.710938 64.148438 137.359375 64.054688 C 136.992188 63.957031 136.6875 63.71875 136.5 63.390625 C 136.3125 63.0625 136.261719 62.679688 136.363281 62.316406 C 136.554688 61.609375 136.457031 60.871094 136.09375 60.234375 C 135.730469 59.601562 135.140625 59.144531 134.4375 58.953125 C 133.683594 58.75 133.234375 57.96875 133.4375 57.214844 C 133.535156 56.863281 133.328125 56.5 132.976562 56.402344 C 132.621094 56.308594 132.261719 56.515625 132.164062 56.867188 C 131.769531 58.324219 132.632812 59.832031 134.089844 60.226562 C 134.457031 60.328125 134.761719 60.5625 134.949219 60.890625 C 135.136719 61.21875 135.1875 61.601562 135.085938 61.96875 C 134.894531 62.671875 134.992188 63.414062 135.355469 64.046875 C 135.71875 64.679688 136.304688 65.136719 137.011719 65.328125 C 137.070312 65.34375 137.128906 65.351562 137.1875 65.351562 C 137.476562 65.351562 137.742188 65.160156 137.824219 64.863281 Z M 144.523438 42.429688 C 144.195312 42.621094 143.960938 42.925781 143.859375 43.289062 C 143.761719 43.65625 143.808594 44.039062 144 44.367188 C 144.75 45.675781 144.292969 47.351562 142.984375 48.105469 C 142.65625 48.292969 142.417969 48.597656 142.320312 48.964844 C 142.21875 49.328125 142.269531 49.710938 142.457031 50.039062 C 142.640625 50.355469 142.53125 50.757812 142.214844 50.941406 C 142.109375 51 141.996094 51.027344 141.886719 51.027344 C 141.65625 51.027344 141.433594 50.910156 141.3125 50.695312 C 140.949219 50.0625 140.855469 49.324219 141.046875 48.617188 C 141.238281 47.910156 141.691406 47.324219 142.328125 46.957031 C 143.003906 46.570312 143.242188 45.703125 142.851562 45.023438 C 142.488281 44.386719 142.394531 43.648438 142.585938 42.945312 C 142.777344 42.238281 143.230469 41.648438 143.867188 41.285156 C 144.183594 41.101562 144.585938 41.210938 144.769531 41.527344 C 144.949219 41.84375 144.839844 42.25 144.523438 42.429688 " fill-opacity="1" fill-rule="nonzero"/><g clip-path="url(#eded68ccbc)"><path fill="#ef3044" d="M 128.367188 65.449219 C 128.367188 67.613281 126.605469 69.375 124.445312 69.375 C 122.28125 69.375 120.519531 67.613281 120.519531 65.449219 C 120.519531 63.285156 122.28125 61.527344 124.445312 61.527344 C 126.605469 61.527344 128.367188 63.285156 128.367188 65.449219 Z M 134.292969 44.632812 C 134.292969 46.796875 132.535156 48.558594 130.367188 48.558594 C 128.207031 48.558594 126.445312 46.796875 126.445312 44.632812 C 126.445312 42.46875 128.207031 40.710938 130.367188 40.710938 C 132.535156 40.710938 134.292969 42.46875 134.292969 44.632812 Z M 149.917969 59.117188 C 149.917969 60.84375 148.515625 62.246094 146.789062 62.246094 C 145.066406 62.246094 143.664062 60.84375 143.664062 59.117188 C 143.664062 57.394531 145.066406 55.992188 146.789062 55.992188 C 148.515625 55.992188 149.917969 57.394531 149.917969 59.117188 Z M 138.460938 71.128906 C 138.492188 71.492188 138.222656 71.8125 137.859375 71.84375 C 137.480469 71.875 137.136719 72.050781 136.894531 72.339844 C 136.652344 72.628906 136.53125 72.996094 136.5625 73.375 C 136.625 74.101562 136.398438 74.8125 135.925781 75.371094 C 135.453125 75.929688 134.792969 76.269531 134.0625 76.332031 C 133.285156 76.398438 132.703125 77.082031 132.769531 77.863281 C 132.800781 78.226562 132.53125 78.546875 132.167969 78.578125 C 132.148438 78.578125 132.128906 78.578125 132.109375 78.578125 C 131.769531 78.578125 131.480469 78.320312 131.453125 77.972656 C 131.328125 76.46875 132.449219 75.140625 133.953125 75.015625 C 134.332031 74.984375 134.671875 74.808594 134.917969 74.515625 C 135.164062 74.230469 135.28125 73.863281 135.246094 73.484375 C 135.1875 72.753906 135.414062 72.046875 135.886719 71.488281 C 136.359375 70.929688 137.019531 70.585938 137.75 70.527344 C 138.109375 70.5 138.429688 70.765625 138.460938 71.128906 Z M 120.664062 50.867188 C 119.203125 50.472656 118.34375 48.964844 118.738281 47.507812 C 118.832031 47.15625 119.195312 46.949219 119.546875 47.042969 C 119.898438 47.136719 120.109375 47.5 120.011719 47.851562 C 119.808594 48.605469 120.253906 49.386719 121.007812 49.59375 C 122.464844 49.988281 123.332031 51.496094 122.933594 52.953125 C 122.730469 53.707031 123.175781 54.488281 123.933594 54.695312 C 124.285156 54.789062 124.492188 55.152344 124.394531 55.503906 C 124.316406 55.800781 124.050781 55.992188 123.757812 55.992188 C 123.703125 55.992188 123.644531 55.984375 123.585938 55.96875 C 122.128906 55.574219 121.265625 54.066406 121.660156 52.609375 C 121.863281 51.851562 121.417969 51.070312 120.664062 50.867188 Z M 157.691406 41.605469 C 157.5 41.503906 157.304688 41.402344 157.105469 41.300781 C 149.917969 37.65625 141.90625 35.738281 133.847656 35.738281 C 125.429688 35.738281 117.101562 37.820312 109.675781 41.773438 C 109.484375 41.878906 109.289062 41.980469 109.097656 42.085938 C 109.074219 42.097656 109.054688 42.109375 109.035156 42.121094 L 108.257812 41.070312 L 107.972656 40.683594 L 107.464844 40 L 104.960938 36.609375 C 104.863281 36.476562 104.824219 36.316406 104.847656 36.15625 C 104.875 35.996094 104.960938 35.859375 105.089844 35.765625 C 113.5625 29.828125 123.503906 26.691406 133.847656 26.691406 C 143.78125 26.691406 153.402344 29.605469 161.664062 35.125 C 161.800781 35.214844 161.886719 35.351562 161.917969 35.511719 C 161.949219 35.671875 161.914062 35.832031 161.820312 35.96875 L 159.089844 39.835938 L 158.929688 40.0625 L 158.328125 40.917969 L 157.804688 41.660156 C 157.765625 41.644531 157.730469 41.625 157.691406 41.605469 Z M 163.214844 35.269531 C 163.121094 34.757812 162.832031 34.316406 162.398438 34.027344 C 153.917969 28.363281 144.042969 25.371094 133.847656 25.371094 C 123.230469 25.371094 113.027344 28.589844 104.332031 34.683594 C 103.910156 34.980469 103.628906 35.429688 103.546875 35.941406 C 103.460938 36.457031 103.585938 36.972656 103.898438 37.394531 L 108.320312 43.375 C 108.445312 43.546875 108.644531 43.640625 108.851562 43.640625 C 108.941406 43.640625 109.03125 43.621094 109.121094 43.582031 C 109.136719 43.574219 109.15625 43.566406 109.175781 43.558594 C 109.347656 43.457031 109.523438 43.359375 109.699219 43.265625 C 109.890625 43.160156 110.085938 43.054688 110.28125 42.949219 C 117.519531 39.09375 125.640625 37.058594 133.847656 37.058594 C 141.707031 37.058594 149.515625 38.933594 156.523438 42.488281 C 156.722656 42.589844 156.917969 42.691406 157.113281 42.792969 C 157.304688 42.894531 157.5 42.996094 157.691406 43.101562 C 157.695312 43.101562 157.695312 43.101562 157.695312 43.101562 C 157.992188 43.257812 158.355469 43.171875 158.546875 42.898438 L 162.898438 36.726562 C 163.199219 36.300781 163.3125 35.78125 163.214844 35.269531 " fill-opacity="1" fill-rule="nonzero"/></g><g clip-path="url(#294771f8e3)"><path stroke-linecap="butt" transform="matrix(0.746767, 0, 0, 0.746767, 0.575435, 85.830314)" fill="none" stroke-linejoin="miter" d="M -0.00162877 1.498331 L 127.208157 1.498331 " stroke="#3e75a3" stroke-width="3" stroke-opacity="1" stroke-miterlimit="4"/></g><g clip-path="url(#df2a635b8a)"><path stroke-linecap="butt" transform="matrix(0.746767, 0, 0, 0.746767, 0.575435, 32.896349)" fill="none" stroke-linejoin="miter" d="M -0.00162877 1.498829 L 127.208157 1.498829 " stroke="#3e75a3" stroke-width="3" stroke-opacity="1" stroke-miterlimit="4"/></g><g clip-path="url(#ecdefe6ea2)"><path stroke-linecap="butt" transform="matrix(0.746767, 0, 0, 0.746767, 171.203644, 85.830314)" fill="none" stroke-linejoin="miter" d="M -0.000694561 1.498331 L 127.209091 1.498331 " stroke="#3e75a3" stroke-width="3" stroke-opacity="1" stroke-miterlimit="4"/></g><g clip-path="url(#7454103a7c)"><path stroke-linecap="butt" transform="matrix(0.746767, 0, 0, 0.746767, 171.203644, 32.896349)" fill="none" stroke-linejoin="miter" d="M -0.000694561 1.498829 L 127.209091 1.498829 " stroke="#3e75a3" stroke-width="3" stroke-opacity="1" stroke-miterlimit="4"/></g><g fill="#ef3044" fill-opacity="1"><g transform="translate(3.432806, 67.637341)"><g><path d="M 1 -17.390625 L 5.3125 -17.390625 C 6.6875 -17.390625 7.707031 -17.023438 8.375 -16.296875 C 9.050781 -15.566406 9.390625 -14.5 9.390625 -13.09375 L 9.390625 -4.296875 C 9.390625 -2.890625 9.050781 -1.820312 8.375 -1.09375 C 7.707031 -0.363281 6.6875 0 5.3125 0 L 1 0 Z M 3.71875 -14.90625 L 3.71875 -2.484375 L 5.265625 -2.484375 C 5.691406 -2.484375 6.03125 -2.609375 6.28125 -2.859375 C 6.53125 -3.109375 6.65625 -3.546875 6.65625 -4.171875 L 6.65625 -13.21875 C 6.65625 -13.84375 6.53125 -14.28125 6.28125 -14.53125 C 6.03125 -14.78125 5.691406 -14.90625 5.265625 -14.90625 Z M 3.71875 -14.90625 "/></g></g></g><g fill="#ef3044" fill-opacity="1"><g transform="translate(16.695687, 67.637341)"><g><path d="M 9.84375 0 L 7.078125 0 L 6.609375 -3.15625 L 3.25 -3.15625 L 2.78125 0 L 0.265625 0 L 3.0625 -17.390625 L 7.0625 -17.390625 Z M 3.609375 -5.515625 L 6.234375 -5.515625 L 4.921875 -14.3125 Z M 3.609375 -5.515625 "/></g></g></g><g fill="#ef3044" fill-opacity="1"><g transform="translate(29.933721, 67.637341)"><g><path d="M 0.640625 -13.21875 C 0.640625 -14.625 0.972656 -15.703125 1.640625 -16.453125 C 2.316406 -17.210938 3.328125 -17.59375 4.671875 -17.59375 C 6.015625 -17.59375 7.019531 -17.210938 7.6875 -16.453125 C 8.351562 -15.703125 8.6875 -14.625 8.6875 -13.21875 L 8.6875 -12.546875 L 6.109375 -12.546875 L 6.109375 -13.390625 C 6.109375 -14.015625 5.988281 -14.457031 5.75 -14.71875 C 5.507812 -14.976562 5.175781 -15.109375 4.75 -15.109375 C 4.3125 -15.109375 3.972656 -14.976562 3.734375 -14.71875 C 3.492188 -14.457031 3.375 -14.015625 3.375 -13.390625 C 3.375 -12.796875 3.503906 -12.269531 3.765625 -11.8125 C 4.035156 -11.351562 4.367188 -10.921875 4.765625 -10.515625 C 5.160156 -10.109375 5.585938 -9.703125 6.046875 -9.296875 C 6.503906 -8.890625 6.929688 -8.445312 7.328125 -7.96875 C 7.722656 -7.488281 8.050781 -6.941406 8.3125 -6.328125 C 8.582031 -5.722656 8.71875 -5.003906 8.71875 -4.171875 C 8.71875 -2.765625 8.375 -1.679688 7.6875 -0.921875 C 7 -0.171875 5.984375 0.203125 4.640625 0.203125 C 3.304688 0.203125 2.296875 -0.171875 1.609375 -0.921875 C 0.921875 -1.679688 0.578125 -2.765625 0.578125 -4.171875 L 0.578125 -5.359375 L 3.15625 -5.359375 L 3.15625 -4 C 3.15625 -3.375 3.28125 -2.9375 3.53125 -2.6875 C 3.789062 -2.4375 4.140625 -2.3125 4.578125 -2.3125 C 5.003906 -2.3125 5.34375 -2.4375 5.59375 -2.6875 C 5.851562 -2.9375 5.984375 -3.375 5.984375 -4 C 5.984375 -4.59375 5.847656 -5.117188 5.578125 -5.578125 C 5.316406 -6.035156 4.988281 -6.46875 4.59375 -6.875 C 4.195312 -7.28125 3.769531 -7.679688 3.3125 -8.078125 C 2.863281 -8.484375 2.4375 -8.925781 2.03125 -9.40625 C 1.632812 -9.894531 1.300781 -10.441406 1.03125 -11.046875 C 0.769531 -11.660156 0.640625 -12.382812 0.640625 -13.21875 Z M 0.640625 -13.21875 "/></g></g></g><g fill="#ef3044" fill-opacity="1"><g transform="translate(42.352176, 67.637341)"><g><path d="M 4.578125 -6.9375 L 3.71875 -5.34375 L 3.71875 0 L 1 0 L 1 -17.390625 L 3.71875 -17.390625 L 3.71875 -9.8125 L 7.359375 -17.390625 L 10.03125 -17.390625 L 6.234375 -9.640625 L 10.03125 0 L 7.234375 0 Z M 4.578125 -6.9375 "/></g></g></g><g fill="#ef3044" fill-opacity="1"><g transform="translate(55.764069, 67.637341)"><g><path d="M 9.84375 0 L 7.078125 0 L 6.609375 -3.15625 L 3.25 -3.15625 L 2.78125 0 L 0.265625 0 L 3.0625 -17.390625 L 7.0625 -17.390625 Z M 3.609375 -5.515625 L 6.234375 -5.515625 L 4.921875 -14.3125 Z M 3.609375 -5.515625 "/></g></g></g><g fill="#ef3044" fill-opacity="1"><g transform="translate(69.002104, 67.637341)"><g><path d="M 3.546875 -5.765625 L 0.09375 -17.390625 L 2.953125 -17.390625 L 5.046875 -9.46875 L 7.125 -17.390625 L 9.734375 -17.390625 L 6.28125 -5.765625 L 6.28125 0 L 3.546875 0 Z M 3.546875 -5.765625 "/></g></g></g><g fill="#ef3044" fill-opacity="1"><g transform="translate(81.966945, 67.637341)"><g><path d="M 9.84375 0 L 7.078125 0 L 6.609375 -3.15625 L 3.25 -3.15625 L 2.78125 0 L 0.265625 0 L 3.0625 -17.390625 L 7.0625 -17.390625 Z M 3.609375 -5.515625 L 6.234375 -5.515625 L 4.921875 -14.3125 Z M 3.609375 -5.515625 "/></g></g></g><g fill="#ef3044" fill-opacity="1"><g transform="translate(188.756272, 67.637341)"><g><path d="M 5.015625 -17.390625 C 6.390625 -17.390625 7.410156 -17.023438 8.078125 -16.296875 C 8.753906 -15.566406 9.09375 -14.5 9.09375 -13.09375 L 9.09375 -10.828125 C 9.09375 -9.421875 8.753906 -8.351562 8.078125 -7.625 C 7.410156 -6.894531 6.390625 -6.53125 5.015625 -6.53125 L 3.71875 -6.53125 L 3.71875 0 L 1 0 L 1 -17.390625 Z M 3.71875 -14.90625 L 3.71875 -9.015625 L 5.015625 -9.015625 C 5.453125 -9.015625 5.785156 -9.128906 6.015625 -9.359375 C 6.242188 -9.597656 6.359375 -10.03125 6.359375 -10.65625 L 6.359375 -13.265625 C 6.359375 -13.890625 6.242188 -14.316406 6.015625 -14.546875 C 5.785156 -14.785156 5.453125 -14.90625 5.015625 -14.90625 Z M 3.71875 -14.90625 "/></g></g></g><g fill="#ef3044" fill-opacity="1"><g transform="translate(201.348599, 67.637341)"><g><path d="M 1 -17.390625 L 3.71875 -17.390625 L 3.71875 0 L 1 0 Z M 1 -17.390625 "/></g></g></g><g fill="#ef3044" fill-opacity="1"><g transform="translate(209.296626, 67.637341)"><g><path d="M 8.578125 -17.390625 L 8.578125 -14.953125 L 3.375 -2.484375 L 8.578125 -2.484375 L 8.578125 0 L 0.578125 0 L 0.578125 -2.4375 L 5.765625 -14.90625 L 0.8125 -14.90625 L 0.8125 -17.390625 Z M 8.578125 -17.390625 "/></g></g></g><g fill="#ef3044" fill-opacity="1"><g transform="translate(221.715095, 67.637341)"><g><path d="M 8.578125 -17.390625 L 8.578125 -14.953125 L 3.375 -2.484375 L 8.578125 -2.484375 L 8.578125 0 L 0.578125 0 L 0.578125 -2.4375 L 5.765625 -14.90625 L 0.8125 -14.90625 L 0.8125 -17.390625 Z M 8.578125 -17.390625 "/></g></g></g><g fill="#ef3044" fill-opacity="1"><g transform="translate(234.133564, 67.637341)"><g><path d="M 9.84375 0 L 7.078125 0 L 6.609375 -3.15625 L 3.25 -3.15625 L 2.78125 0 L 0.265625 0 L 3.0625 -17.390625 L 7.0625 -17.390625 Z M 3.609375 -5.515625 L 6.234375 -5.515625 L 4.921875 -14.3125 Z M 3.609375 -5.515625 "/></g></g></g><g fill="#3e75a3" fill-opacity="1"><g transform="translate(101.168466, 22.967474)"><g><path d="M -5.515625 -10.078125 L -3.109375 -11.59375 C -2.335938 -12.070312 -1.632812 -12.222656 -1 -12.046875 C -0.363281 -11.867188 0.195312 -11.382812 0.6875 -10.59375 L 3.75 -5.6875 C 4.238281 -4.894531 4.421875 -4.175781 4.296875 -3.53125 C 4.179688 -2.894531 3.738281 -2.335938 2.96875 -1.859375 L 0.5625 -0.34375 Z M -3.125 -9.640625 L 1.203125 -2.6875 L 2.0625 -3.234375 C 2.300781 -3.378906 2.445312 -3.5625 2.5 -3.78125 C 2.5625 -4.007812 2.484375 -4.300781 2.265625 -4.65625 L -0.90625 -9.71875 C -1.113281 -10.0625 -1.332031 -10.257812 -1.5625 -10.3125 C -1.789062 -10.375 -2.023438 -10.332031 -2.265625 -10.1875 Z M -3.125 -9.640625 "/></g></g></g><g fill="#3e75a3" fill-opacity="1"><g transform="translate(110.323186, 17.685842)"><g><path d="M 6.046875 -2.34375 L 4.359375 -1.6875 L 3.3125 -3.515625 L 1.25 -2.703125 L 1.703125 -0.65625 L 0.171875 -0.0625 L -2.265625 -11.421875 L 0.203125 -12.375 Z M 0.90625 -4.25 L 2.515625 -4.875 L -0.375 -9.96875 Z M 0.90625 -4.25 "/></g></g></g><g fill="#3e75a3" fill-opacity="1"><g transform="translate(120.280624, 14.208725)"><g><path d="M 0.765625 -8.578125 L 2.234375 -0.40625 L 0.625 -0.109375 L -1.40625 -11.390625 L 0.8125 -11.796875 L 3.859375 -5.359375 L 2.640625 -12.125 L 4.234375 -12.40625 L 6.265625 -1.125 L 4.421875 -0.796875 Z M 0.765625 -8.578125 "/></g></g></g><g fill="#3e75a3" fill-opacity="1"><g transform="translate(131.055009, 12.674804)"><g><path d="M 0.484375 -8.71875 C 0.492188 -9.644531 0.722656 -10.351562 1.171875 -10.84375 C 1.617188 -11.332031 2.285156 -11.570312 3.171875 -11.5625 C 4.054688 -11.5625 4.71875 -11.3125 5.15625 -10.8125 C 5.59375 -10.3125 5.804688 -9.597656 5.796875 -8.671875 L 5.796875 -8.21875 L 4.09375 -8.234375 L 4.109375 -8.796875 C 4.109375 -9.210938 4.023438 -9.503906 3.859375 -9.671875 C 3.703125 -9.835938 3.484375 -9.921875 3.203125 -9.921875 C 2.921875 -9.929688 2.703125 -9.851562 2.546875 -9.6875 C 2.390625 -9.519531 2.3125 -9.226562 2.3125 -8.8125 C 2.300781 -8.414062 2.378906 -8.066406 2.546875 -7.765625 C 2.722656 -7.472656 2.9375 -7.1875 3.1875 -6.90625 C 3.445312 -6.632812 3.726562 -6.363281 4.03125 -6.09375 C 4.332031 -5.832031 4.609375 -5.539062 4.859375 -5.21875 C 5.117188 -4.894531 5.335938 -4.53125 5.515625 -4.125 C 5.691406 -3.71875 5.773438 -3.242188 5.765625 -2.703125 C 5.765625 -1.773438 5.535156 -1.066406 5.078125 -0.578125 C 4.617188 -0.0859375 3.945312 0.15625 3.0625 0.15625 C 2.175781 0.144531 1.507812 -0.109375 1.0625 -0.609375 C 0.613281 -1.109375 0.390625 -1.820312 0.390625 -2.75 L 0.40625 -3.53125 L 2.109375 -3.515625 L 2.09375 -2.625 C 2.09375 -2.207031 2.175781 -1.914062 2.34375 -1.75 C 2.519531 -1.582031 2.75 -1.492188 3.03125 -1.484375 C 3.3125 -1.484375 3.535156 -1.566406 3.703125 -1.734375 C 3.878906 -1.898438 3.96875 -2.191406 3.96875 -2.609375 C 3.976562 -2.992188 3.894531 -3.335938 3.71875 -3.640625 C 3.539062 -3.941406 3.320312 -4.226562 3.0625 -4.5 C 2.8125 -4.769531 2.535156 -5.039062 2.234375 -5.3125 C 1.929688 -5.582031 1.648438 -5.878906 1.390625 -6.203125 C 1.128906 -6.523438 0.910156 -6.882812 0.734375 -7.28125 C 0.566406 -7.6875 0.484375 -8.164062 0.484375 -8.71875 Z M 0.484375 -8.71875 "/></g></g></g><g fill="#3e75a3" fill-opacity="1"><g transform="translate(141.07137, 13.085237)"><g><path d="M 3.828125 -3.90625 L 3.078125 -2.984375 L 2.40625 0.46875 L 0.640625 0.125 L 2.84375 -11.125 L 4.609375 -10.78125 L 3.640625 -5.875 L 6.953125 -10.328125 L 8.6875 -9.984375 L 5.25 -5.453125 L 6.484375 1.265625 L 4.671875 0.90625 Z M 3.828125 -3.90625 "/></g></g></g><g fill="#3e75a3" fill-opacity="1"><g transform="translate(151.468736, 15.516091)"><g><path d="M 4.71875 -5.25 L 7.015625 -4.34375 L 6.421875 -2.84375 L 4.125 -3.75 L 2.890625 -0.625 L 5.78125 0.515625 L 5.171875 2.046875 L 0.609375 0.234375 L 4.828125 -10.4375 L 9.390625 -8.625 L 8.78125 -7.09375 L 5.890625 -8.234375 Z M 4.71875 -5.25 "/></g></g></g><g fill="#3e75a3" fill-opacity="1"><g transform="translate(160.578496, 19.474962)"><g><path d="M 3.75 2.34375 C 3.769531 2.269531 3.789062 2.195312 3.8125 2.125 C 3.832031 2.0625 3.859375 1.984375 3.890625 1.890625 C 3.929688 1.796875 3.988281 1.679688 4.0625 1.546875 C 4.132812 1.410156 4.234375 1.25 4.359375 1.0625 L 5.3125 -0.46875 C 5.59375 -0.925781 5.710938 -1.289062 5.671875 -1.5625 C 5.640625 -1.84375 5.445312 -2.097656 5.09375 -2.328125 L 4.5625 -2.65625 L 2.078125 1.296875 L 0.5625 0.34375 L 6.640625 -9.375 L 8.9375 -7.921875 C 9.726562 -7.429688 10.1875 -6.890625 10.3125 -6.296875 C 10.445312 -5.703125 10.28125 -5.03125 9.8125 -4.28125 L 9.328125 -3.515625 C 8.703125 -2.515625 7.957031 -2.066406 7.09375 -2.171875 C 7.382812 -1.773438 7.488281 -1.347656 7.40625 -0.890625 C 7.332031 -0.441406 7.132812 0.0351562 6.8125 0.546875 L 5.875 2.046875 C 5.726562 2.273438 5.601562 2.484375 5.5 2.671875 C 5.40625 2.867188 5.335938 3.082031 5.296875 3.3125 Z M 7.296875 -7.03125 L 5.421875 -4.046875 L 6.015625 -3.671875 C 6.304688 -3.484375 6.578125 -3.410156 6.828125 -3.453125 C 7.085938 -3.503906 7.335938 -3.726562 7.578125 -4.125 L 8.171875 -5.078125 C 8.390625 -5.429688 8.488281 -5.722656 8.46875 -5.953125 C 8.445312 -6.191406 8.304688 -6.394531 8.046875 -6.5625 Z M 7.296875 -7.03125 "/></g></g></g><g fill="#3e75a3" fill-opacity="1"><g transform="translate(93.775208, 109.635292)"><g><path d="M 0.34375 -7.125 C 0.34375 -7.882812 0.523438 -8.46875 0.890625 -8.875 C 1.253906 -9.28125 1.796875 -9.484375 2.515625 -9.484375 C 3.242188 -9.484375 3.785156 -9.28125 4.140625 -8.875 C 4.503906 -8.46875 4.6875 -7.882812 4.6875 -7.125 L 4.6875 -6.765625 L 3.296875 -6.765625 L 3.296875 -7.21875 C 3.296875 -7.5625 3.226562 -7.800781 3.09375 -7.9375 C 2.96875 -8.082031 2.789062 -8.15625 2.5625 -8.15625 C 2.332031 -8.15625 2.148438 -8.082031 2.015625 -7.9375 C 1.890625 -7.800781 1.828125 -7.5625 1.828125 -7.21875 C 1.828125 -6.90625 1.894531 -6.625 2.03125 -6.375 C 2.175781 -6.125 2.351562 -5.890625 2.5625 -5.671875 C 2.78125 -5.453125 3.015625 -5.234375 3.265625 -5.015625 C 3.515625 -4.796875 3.742188 -4.554688 3.953125 -4.296875 C 4.171875 -4.046875 4.347656 -3.753906 4.484375 -3.421875 C 4.628906 -3.085938 4.703125 -2.695312 4.703125 -2.25 C 4.703125 -1.488281 4.515625 -0.90625 4.140625 -0.5 C 3.773438 -0.09375 3.226562 0.109375 2.5 0.109375 C 1.78125 0.109375 1.234375 -0.09375 0.859375 -0.5 C 0.492188 -0.90625 0.3125 -1.488281 0.3125 -2.25 L 0.3125 -2.890625 L 1.703125 -2.890625 L 1.703125 -2.15625 C 1.703125 -1.820312 1.769531 -1.585938 1.90625 -1.453125 C 2.050781 -1.316406 2.238281 -1.25 2.46875 -1.25 C 2.695312 -1.25 2.878906 -1.316406 3.015625 -1.453125 C 3.160156 -1.585938 3.234375 -1.820312 3.234375 -2.15625 C 3.234375 -2.476562 3.160156 -2.757812 3.015625 -3 C 2.867188 -3.25 2.6875 -3.484375 2.46875 -3.703125 C 2.257812 -3.921875 2.03125 -4.140625 1.78125 -4.359375 C 1.539062 -4.578125 1.3125 -4.816406 1.09375 -5.078125 C 0.882812 -5.335938 0.707031 -5.632812 0.5625 -5.96875 C 0.414062 -6.300781 0.34375 -6.6875 0.34375 -7.125 Z M 0.34375 -7.125 "/></g></g></g><g fill="#3e75a3" fill-opacity="1"><g transform="translate(102.400785, 109.635292)"><g><path d="M 0.53125 -9.390625 L 2.015625 -9.390625 L 2.015625 0 L 0.53125 0 Z M 0.53125 -9.390625 "/></g></g></g><g fill="#3e75a3" fill-opacity="1"><g transform="translate(108.562583, 109.635292)"><g><path d="M 1.84375 -6.796875 L 1.84375 0 L 0.515625 0 L 0.515625 -9.390625 L 2.375 -9.390625 L 3.890625 -3.765625 L 3.890625 -9.390625 L 5.203125 -9.390625 L 5.203125 0 L 3.6875 0 Z M 1.84375 -6.796875 "/></g></g></g><g fill="#3e75a3" fill-opacity="1"><g transform="translate(117.897841, 109.635292)"><g><path d="M 4.8125 -3.5 L 4.8125 -2.25 C 4.8125 -1.488281 4.625 -0.90625 4.25 -0.5 C 3.882812 -0.09375 3.335938 0.109375 2.609375 0.109375 C 1.890625 0.109375 1.34375 -0.09375 0.96875 -0.5 C 0.601562 -0.90625 0.421875 -1.488281 0.421875 -2.25 L 0.421875 -7.125 C 0.421875 -7.882812 0.601562 -8.46875 0.96875 -8.875 C 1.34375 -9.28125 1.890625 -9.484375 2.609375 -9.484375 C 3.335938 -9.484375 3.882812 -9.28125 4.25 -8.875 C 4.625 -8.46875 4.8125 -7.882812 4.8125 -7.125 L 4.8125 -6.21875 L 3.421875 -6.21875 L 3.421875 -7.21875 C 3.421875 -7.5625 3.347656 -7.800781 3.203125 -7.9375 C 3.066406 -8.082031 2.882812 -8.15625 2.65625 -8.15625 C 2.425781 -8.15625 2.238281 -8.082031 2.09375 -7.9375 C 1.957031 -7.800781 1.890625 -7.5625 1.890625 -7.21875 L 1.890625 -2.15625 C 1.890625 -1.820312 1.957031 -1.585938 2.09375 -1.453125 C 2.238281 -1.316406 2.425781 -1.25 2.65625 -1.25 C 2.882812 -1.25 3.066406 -1.316406 3.203125 -1.453125 C 3.347656 -1.585938 3.421875 -1.820312 3.421875 -2.15625 L 3.421875 -3.5 Z M 4.8125 -3.5 "/></g></g></g><g fill="#3e75a3" fill-opacity="1"><g transform="translate(126.684099, 109.635292)"><g><path d="M 2.015625 -5.421875 L 4.03125 -5.421875 L 4.03125 -4.09375 L 2.015625 -4.09375 L 2.015625 -1.34375 L 4.5625 -1.34375 L 4.5625 0 L 0.53125 0 L 0.53125 -9.390625 L 4.5625 -9.390625 L 4.5625 -8.046875 L 2.015625 -8.046875 Z M 2.015625 -5.421875 "/></g></g></g><g fill="#3e75a3" fill-opacity="1"><g transform="translate(135.229343, 109.635292)"><g/></g></g><g fill="#3e75a3" fill-opacity="1"><g transform="translate(140.922486, 109.635292)"><g><path d="M 3.453125 -7.078125 C 3.453125 -7.492188 3.382812 -7.773438 3.25 -7.921875 C 3.113281 -8.078125 2.925781 -8.15625 2.6875 -8.15625 C 2.457031 -8.15625 2.273438 -8.082031 2.140625 -7.9375 C 2.003906 -7.800781 1.9375 -7.5625 1.9375 -7.21875 L 1.9375 -6.21875 L 0.53125 -6.21875 L 0.53125 -7.125 C 0.53125 -7.882812 0.71875 -8.46875 1.09375 -8.875 C 1.46875 -9.28125 2.015625 -9.484375 2.734375 -9.484375 C 3.460938 -9.484375 4.007812 -9.28125 4.375 -8.875 C 4.75 -8.46875 4.9375 -7.882812 4.9375 -7.125 C 4.9375 -6.625 4.859375 -6.164062 4.703125 -5.75 C 4.546875 -5.34375 4.347656 -4.96875 4.109375 -4.625 C 3.878906 -4.28125 3.628906 -3.96875 3.359375 -3.6875 C 3.097656 -3.40625 2.859375 -3.132812 2.640625 -2.875 C 2.421875 -2.625 2.25 -2.375 2.125 -2.125 C 2 -1.875 1.960938 -1.613281 2.015625 -1.34375 L 4.796875 -1.34375 L 4.796875 0 L 0.53125 0 L 0.53125 -1.15625 C 0.53125 -1.613281 0.601562 -2.015625 0.75 -2.359375 C 0.894531 -2.703125 1.078125 -3.019531 1.296875 -3.3125 C 1.515625 -3.601562 1.75 -3.875 2 -4.125 C 2.25 -4.382812 2.484375 -4.65625 2.703125 -4.9375 C 2.921875 -5.226562 3.097656 -5.539062 3.234375 -5.875 C 3.378906 -6.21875 3.453125 -6.617188 3.453125 -7.078125 Z M 3.453125 -7.078125 "/></g></g></g><g fill="#3e75a3" fill-opacity="1"><g transform="translate(149.842646, 109.635292)"><g><path d="M 1.890625 -2.15625 C 1.890625 -1.820312 1.957031 -1.582031 2.09375 -1.4375 C 2.238281 -1.300781 2.425781 -1.234375 2.65625 -1.234375 C 2.882812 -1.234375 3.066406 -1.300781 3.203125 -1.4375 C 3.347656 -1.582031 3.421875 -1.820312 3.421875 -2.15625 L 3.421875 -7.21875 C 3.421875 -7.5625 3.347656 -7.800781 3.203125 -7.9375 C 3.066406 -8.082031 2.882812 -8.15625 2.65625 -8.15625 C 2.425781 -8.15625 2.238281 -8.082031 2.09375 -7.9375 C 1.957031 -7.800781 1.890625 -7.5625 1.890625 -7.21875 Z M 0.421875 -7.125 C 0.421875 -7.882812 0.609375 -8.46875 0.984375 -8.875 C 1.367188 -9.28125 1.925781 -9.484375 2.65625 -9.484375 C 3.375 -9.484375 3.925781 -9.28125 4.3125 -8.875 C 4.695312 -8.46875 4.890625 -7.882812 4.890625 -7.125 L 4.890625 -2.25 C 4.890625 -1.488281 4.695312 -0.90625 4.3125 -0.5 C 3.925781 -0.09375 3.375 0.109375 2.65625 0.109375 C 1.925781 0.109375 1.367188 -0.09375 0.984375 -0.5 C 0.609375 -0.90625 0.421875 -1.488281 0.421875 -2.25 Z M 0.421875 -7.125 "/></g></g></g><g fill="#3e75a3" fill-opacity="1"><g transform="translate(158.762806, 109.635292)"><g><path d="M 1.890625 -2.15625 C 1.890625 -1.820312 1.957031 -1.582031 2.09375 -1.4375 C 2.238281 -1.300781 2.425781 -1.234375 2.65625 -1.234375 C 2.882812 -1.234375 3.066406 -1.300781 3.203125 -1.4375 C 3.347656 -1.582031 3.421875 -1.820312 3.421875 -2.15625 L 3.421875 -7.21875 C 3.421875 -7.5625 3.347656 -7.800781 3.203125 -7.9375 C 3.066406 -8.082031 2.882812 -8.15625 2.65625 -8.15625 C 2.425781 -8.15625 2.238281 -8.082031 2.09375 -7.9375 C 1.957031 -7.800781 1.890625 -7.5625 1.890625 -7.21875 Z M 0.421875 -7.125 C 0.421875 -7.882812 0.609375 -8.46875 0.984375 -8.875 C 1.367188 -9.28125 1.925781 -9.484375 2.65625 -9.484375 C 3.375 -9.484375 3.925781 -9.28125 4.3125 -8.875 C 4.695312 -8.46875 4.890625 -7.882812 4.890625 -7.125 L 4.890625 -2.25 C 4.890625 -1.488281 4.695312 -0.90625 4.3125 -0.5 C 3.925781 -0.09375 3.375 0.109375 2.65625 0.109375 C 1.925781 0.109375 1.367188 -0.09375 0.984375 -0.5 C 0.609375 -0.90625 0.421875 -1.488281 0.421875 -2.25 Z M 0.421875 -7.125 "/></g></g></g><g fill="#3e75a3" fill-opacity="1"><g transform="translate(167.682967, 109.635292)"><g><path d="M 1.453125 -8.203125 C 1.734375 -8.203125 1.960938 -8.234375 2.140625 -8.296875 C 2.328125 -8.359375 2.476562 -8.441406 2.59375 -8.546875 C 2.71875 -8.660156 2.8125 -8.785156 2.875 -8.921875 C 2.945312 -9.066406 3.007812 -9.222656 3.0625 -9.390625 L 4.0625 -9.390625 L 4.0625 0 L 2.59375 0 L 2.59375 -7.15625 L 1.453125 -7.15625 Z M 1.453125 -8.203125 "/></g></g></g></svg>